<?xml version="1.0" encoding="UTF-8"?>
<svg id="_레이어_1" data-name="레이어 1" xmlns="http://www.w3.org/2000/svg" version="1.1" viewBox="0 0 1190.55 841.89">
  <defs>
    <style>
      .cls-1 {
        fill: #040000;
        stroke-width: 0px;
      }
    </style>
  </defs>
  <path class="cls-1" d="M264.61,334.59c30.23,0,54.71,16.66,56.48,49.25h-38.34c-.89-13.27-7.82-19.61-18.14-19.61-12.98,0-22.12,10.03-22.12,32.59s8.55,32.88,22.12,32.88c10.62,0,17.55-7.82,18.14-19.9h38.34c-3.39,33.91-26.84,49.25-56.77,49.25-34.51,0-59.28-21.68-59.28-62.23s24.77-62.23,59.57-62.23"/>
  <path class="cls-1" d="M262.53,492.76c-52.77,0-95.7-42.93-95.7-95.7s42.93-95.7,95.7-95.7,95.7,42.93,95.7,95.7-42.93,95.7-95.7,95.7ZM262.53,314.43c-45.56,0-82.63,37.07-82.63,82.63s37.07,82.63,82.63,82.63,82.64-37.07,82.64-82.63-37.07-82.63-82.64-82.63Z"/>
  <path class="cls-1" d="M419.11,428.77c8.02,0,14.29-5.86,14.29-16.65v-8.95c-2.06,1.75-4.83,2.88-9.04,3.7l-4.42.82c-6.78,1.24-11.62,4.63-11.62,11.42,0,6.06,4.42,9.66,10.79,9.66M364.12,423.32c0-21.27,13.05-30.62,35.56-33.51l20.66-2.67c9.25-1.23,13.05-3.8,13.05-9.56,0-5.04-3.8-8.53-10.07-8.53-7.4,0-11.62,4.62-11.82,11.51h-44.6c1.03-23.13,22.1-38.55,55.71-38.55,36.07,0,53.55,17.06,53.55,43.79v43.78c0,8.22,1.23,18.61,4.21,20.86v4.01h-44.71c-.93-4.01-1.54-8.53-1.95-14.18-5.96,9.76-16.86,17.16-33.41,17.16-20.97,0-36.18-12.85-36.18-34.12"/>
  <path class="cls-1" d="M550.79,425.99c10.17,0,15.42-9.87,15.42-26.31s-5.24-26.31-15.42-26.31-15.31,9.97-15.31,26.31,5.24,26.31,15.31,26.31M535.89,439.14v53.24h-43.37v-147.38h43.37v16.13c5.76-11.92,16.24-19.12,31.65-19.12,25.49,0,42.86,20.66,42.86,57.76s-17.26,57.66-43.16,57.66c-15.11,0-25.8-6.27-31.35-18.29"/>
  <path class="cls-1" d="M629.45,418.07v-41.53h-17.27v-31.54h3.19c13.05,0,20.25-4.83,20.87-22.93l.41-10.58h36.18v33.51h23.22v31.54h-23.22v34.74c0,8.84,4.83,11.82,12.43,11.82,3.8,0,6.58-.41,9.25-1.02v30.93c-4.62,1.64-13.47,3.08-22.3,3.08-25.49,0-42.76-10.49-42.76-38.03"/>
  <path class="cls-1" d="M706.45,419.51v-74.51h43.37v69.47c0,6.89,3.18,11.3,9.87,11.3,7.82,0,11.62-5.44,11.62-13.05v-67.72h43.37v109.46h-41.32v-14.7c-5.55,10.89-17.06,17.67-32.17,17.67-23.33,0-34.74-15.41-34.74-37.92"/>
  <path class="cls-1" d="M827.35,345h41.32v19.11c5.14-12.95,16.65-20.76,30.94-20.76,2.06,0,4.43.2,6.07.61v41.42c-2.99-.83-6.28-1.23-9.87-1.23-13.47,0-25.08,8.22-25.08,25.28v45.02h-43.38v-109.46Z"/>
  <path class="cls-1" d="M981.46,385.8c-.52-10.07-6.06-15.94-15.32-15.94s-15.2,5.55-16.44,15.94h31.76ZM907.57,399.98c0-38.03,25.48-57.97,59.82-57.97s57.25,20.66,57.25,56.63c0,4.21,0,8.43-.21,12.03h-74.93c.21,10.99,6.89,17.88,17.06,17.88,7.71,0,13.26-3.6,14.7-10.07h42.96c-3.6,25.08-24.46,38.95-56.83,38.95-36.69,0-59.82-19.22-59.82-57.45"/>
</svg>